<?xml version="1.0" encoding="utf-8"?>
<!-- Generator: Adobe Illustrator 27.5.0, SVG Export Plug-In . SVG Version: 6.00 Build 0)  -->
<svg version="1.1" xmlns="http://www.w3.org/2000/svg" xmlns:xlink="http://www.w3.org/1999/xlink" x="0px" y="0px"
	 viewBox="0 0 600 400" style="enable-background:new 0 0 600 400;" xml:space="preserve">
<g id="background">
	<rect y="0" style="fill:#FFFFFF;" width="600" height="400"/>
</g>
<g id="objects">
	<path style="fill:#1C1C1C;" d="M495.075,238.765c-0.761-6.06-2.58-12.022-5.617-17.339c-2.992-5.332-7.237-9.977-12.373-13.309
		l-0.327,0.503c5.027,3.309,9.166,7.898,12.073,13.158c2.951,5.245,4.701,11.122,5.411,17.085
		c0.666,5.972,0.295,12.074-1.247,17.878c-1.501,5.816-4.26,11.26-7.736,16.148c-7.031,9.778-17.102,17.137-28.15,21.812
		c-11.08,4.746-23.232,6.53-35.252,6.434c-12.055-0.124-24.039-2.143-35.73-5.125c-11.707-2.985-23.146-6.971-34.306-11.594
		c-3.731-1.587-7.432-3.249-11.1-4.978c3.773-2.721,7.506-5.494,11.202-8.313c29.887-22.449,52.598-54.516,63.169-90.424
		c2.648-8.967,4.527-18.161,5.601-27.451c0.499-4.654,0.894-9.296,0.967-14.01c0.074-4.7-0.127-9.406-0.634-14.086
		c-1.03-9.347-3.226-18.652-7.157-27.33c-3.913-8.644-9.731-16.663-17.473-22.457c-3.845-2.903-8.114-5.24-12.601-6.945
		c-4.487-1.711-9.179-2.796-13.898-3.374c-2.375-0.279-4.694-0.482-7.135-0.49c-2.415,0.006-4.833,0.151-7.214,0.529
		c-4.766,0.73-9.392,2.183-13.733,4.196c-8.691,4.043-16.206,10.268-22.139,17.66c-4.821,5.986-8.546,12.808-11.121,20.034
		c-1.907-4.003-4.172-7.843-6.866-11.389c-3.753-5.009-8.305-9.458-13.523-12.983c-5.205-3.528-11.065-6.159-17.237-7.507
		c-6.164-1.37-12.582-1.497-18.79-0.497c-3.103,0.516-6.148,1.315-9.108,2.337c-1.46,0.505-2.986,1.074-4.413,1.8
		c-1.447,0.688-2.816,1.506-4.146,2.372c-5.309,3.494-9.73,8.145-13.209,13.362c-3.501,5.216-5.986,11.057-7.568,17.085
		c-1.6,6.035-2.204,12.279-2.167,18.47c0.212,12.417,3.222,24.552,7.622,35.979c4.428,11.449,10.408,22.251,17.406,32.27
		c14.025,20.073,31.78,37.235,51.205,51.896c4.841,3.7,9.869,7.142,14.929,10.528c4.769,3.081,9.579,6.102,14.51,8.918
		c-10.314-4.539-20.701-8.921-31.202-13.039c-8.578-3.37-17.225-6.577-25.966-9.529c-8.733-2.977-17.571-5.665-26.505-8.025
		c-17.852-4.746-36.129-8.164-54.649-9.479c-9.244-0.706-18.692-0.612-27.977,0.71c-9.273,1.332-18.554,3.775-26.995,8.403
		c-4.196,2.323-8.164,5.213-11.511,8.804c-3.349,3.575-6.025,7.866-7.673,12.526c-1.684,4.653-2.32,9.606-2.232,14.451
		c0.047,2.429,0.268,4.83,0.644,7.215c0.367,2.391,0.907,4.763,1.636,7.08c2.836,9.328,8.673,17.583,15.901,23.874
		c7.229,6.361,15.705,10.972,24.47,14.454c8.795,3.468,17.958,5.796,27.22,7.292c9.267,1.499,18.655,2.101,28.034,1.92
		c4.69-0.104,9.38-0.4,14.054-0.945c2.331-0.269,4.684-0.595,6.982-1.003l3.455-0.601l3.439-0.676
		c9.157-1.875,18.166-4.388,26.984-7.412c17.651-6.04,34.486-14.157,50.535-23.468c11.318-6.565,22.256-13.731,32.881-21.313
		c4.065,1.903,8.171,3.715,12.312,5.443c11.276,4.582,22.827,8.519,34.649,11.45c11.808,2.93,23.936,4.896,36.158,4.941
		c12.182,0.018,24.533-1.874,35.779-6.779c11.206-4.828,21.406-12.38,28.511-22.397c3.51-5.005,6.29-10.579,7.786-16.532
		C495.457,251.047,495.792,244.834,495.075,238.765z M289.291,248.158c-19.153-14.654-36.591-31.768-50.255-51.598
		c-6.834-9.892-12.629-20.496-16.898-31.7c-4.246-11.188-7.085-22.982-7.225-34.868c-0.004-5.924,0.603-11.858,2.144-17.546
		c1.522-5.682,3.885-11.146,7.173-15.989c3.262-4.844,7.396-9.13,12.248-12.284c2.445-1.586,4.964-2.823,7.763-3.734
		c2.774-0.945,5.615-1.679,8.498-2.149c5.768-0.904,11.683-0.762,17.359,0.521c5.682,1.263,11.077,3.709,15.89,6.996
		c4.824,3.284,9.053,7.442,12.55,12.148c3.534,4.687,6.301,9.94,8.437,15.429l2.19,5.627l1.617-5.823
		c2.387-8.596,6.486-16.738,12.112-23.659c5.599-6.92,12.666-12.699,20.702-16.394c4.014-1.84,8.258-3.149,12.594-3.794
		c2.167-0.336,4.356-0.454,6.539-0.452c2.162,0.011,4.434,0.223,6.625,0.494c8.814,1.097,17.341,4.233,24.305,9.596
		c7.007,5.31,12.316,12.672,15.931,20.777c3.626,8.128,5.68,16.972,6.589,25.906c0.451,4.473,0.61,8.98,0.505,13.48
		c-0.105,4.489-0.513,9.025-1.024,13.514c-1.096,8.987-2.971,17.878-5.589,26.546c-5.232,17.341-13.392,33.779-23.879,48.54
		c-10.491,14.779-23.296,27.833-37.854,38.661c-4.532,3.428-9.124,6.776-13.766,10.049c-5.139-2.572-10.203-5.295-15.164-8.196
		c-5.245-2.997-10.337-6.251-15.386-9.562C299.025,255.303,294.063,251.857,289.291,248.158z M302.779,296.852
		c-15.82,9.079-32.322,16.965-49.484,22.931c-8.582,2.968-17.33,5.431-26.201,7.271l-3.331,0.664l-3.343,0.59
		c-2.232,0.403-4.438,0.713-6.677,0.978c-4.466,0.533-8.969,0.829-13.478,0.94c-9.021,0.206-18.069-0.388-26.988-1.722
		c-8.913-1.356-17.711-3.513-26.074-6.725c-8.337-3.222-16.305-7.492-22.969-13.257c-6.674-5.714-11.917-13.032-14.532-21.34
		c-1.336-4.123-2.022-8.509-2.167-12.858c-0.115-4.341,0.413-8.673,1.831-12.699c1.389-4.034,3.645-7.736,6.555-10.903
		c2.906-3.176,6.437-5.813,10.265-7.977c7.706-4.297,16.471-6.795,25.355-8.209c8.928-1.407,17.989-1.646,27.099-1.094
		c18.231,1.009,36.352,4.098,54.132,8.53c17.787,4.438,35.295,10.066,52.539,16.418c13.789,5.076,27.419,10.599,40.989,16.277
		c2.071,1.097,4.161,2.158,6.259,3.201C322.889,284.613,312.977,290.988,302.779,296.852z"/>
</g>
</svg>
