<?xml version="1.0" encoding="utf-8"?>
<!-- Generator: Adobe Illustrator 27.5.0, SVG Export Plug-In . SVG Version: 6.00 Build 0)  -->
<svg version="1.1" xmlns="http://www.w3.org/2000/svg" xmlns:xlink="http://www.w3.org/1999/xlink" x="0px" y="0px"
	 viewBox="0 0 1200 1200" style="enable-background:new 0 0 1200 1200;" xml:space="preserve">
<g id="Background">
	<rect y="0" style="fill:#F7F6F5;" width="1200" height="1200"/>
</g>
<g id="Graphic_Elements">
	<g>
		<path style="fill:#B01D10;" d="M845.824,403.943h-0.017c0.071-1.687,0.134-3.377,0.134-5.081
			c0-68.373-57.667-127.64-128.803-127.64c-52.01,0-96.789,33.485-117.125,76.14h-0.026c-20.336-42.656-65.115-76.14-117.125-76.14
			c-71.137,0-128.804,59.266-128.804,127.64c0,1.704,0.063,3.394,0.134,5.081h-0.017c0,0-7.271,81.222,83.118,169.9
			c41.096,41.178,87.059,80.31,162.706,141.798c75.648-61.489,121.61-100.621,162.707-141.798
			C853.096,485.166,845.824,403.943,845.824,403.943z"/>
		<g>
			
				<path style="fill:none;stroke:#222223;stroke-width:19.533;stroke-linecap:round;stroke-linejoin:round;stroke-miterlimit:10;" d="
				M286.093,708.894c0,0-26.311-52.621-43.225-66.717c-16.914-14.095-9.397-33.828,21.613-29.13
				c31.009,4.698,73.294,60.139,93.967,85.51c20.673,25.371,44.165,27.25,44.165,27.25c76.113,11.276,98.457,16.67,140.115,82.447
				c53.55,84.552,13.155,124.036-43.225,120.278c-56.38-3.759-86.45-31.949-86.45-31.949s-79.976-50.498-110.985-64.593
				c-31.009-14.095-99.605-157.864-115.58-196.391c-15.974-38.526-3.759-175.718,18.793-174.779
				c22.552,0.94,34.768,14.095,34.768,63.898c0,49.802,4.699,73.294,4.699,73.294"/>
			
				<path style="fill:none;stroke:#222223;stroke-width:19.533;stroke-linecap:round;stroke-linejoin:round;stroke-miterlimit:10;" d="
				M913.907,708.894c0,0,26.311-52.621,43.225-66.717c16.914-14.095,9.397-33.828-21.612-29.13
				c-31.009,4.698-73.294,60.139-93.968,85.51c-20.673,25.371-44.164,27.25-44.164,27.25
				c-76.113,11.276-98.457,16.67-140.115,82.447c-53.55,84.552-13.155,124.036,43.225,120.278
				c56.381-3.759,86.45-31.949,86.45-31.949s79.977-50.498,110.986-64.593c31.009-14.095,99.605-157.864,115.579-196.391
				c15.975-38.526,3.759-175.718-18.793-174.779c-22.552,0.94-34.768,14.095-34.768,63.898c0,49.802-4.698,73.294-4.698,73.294"/>
		</g>
	</g>
</g>
</svg>
